<svg width="32" height="80" viewBox="0 0 32 80" fill="none" xmlns="http://www.w3.org/2000/svg">
<g clip-path="url(#clip0_1125_278)">
<path d="M31.9961 26.6353V16.1786C23.5105 16.1807 15.3732 19.53 9.37377 25.4899C3.37431 31.4499 0.00396703 39.5325 0.00396729 47.9601H10.5326C10.5316 45.16 11.086 42.3872 12.1642 39.8C13.2424 37.2129 14.8232 34.862 16.8163 32.8817C18.8095 30.9014 21.176 29.3305 23.7805 28.2587C26.3851 27.187 29.1768 26.6353 31.9961 26.6353Z" fill="#3E4136"/>
<path d="M0.00396729 69.5393V80C8.49021 79.9989 16.6285 76.6501 22.6288 70.69C28.6291 64.73 32 56.6468 32 48.2185H21.4635C21.464 51.0179 20.9093 53.7899 19.8312 56.3764C18.753 58.9629 17.1725 61.3131 15.1798 63.293C13.1871 65.2728 10.8212 66.8434 8.21737 67.9152C5.6135 68.9869 2.82259 69.5388 0.00396729 69.5393Z" fill="#3E4136"/>
<path d="M31.9093 2.44785V0.00402832H0.0906982V15.2779C8.61202 7.05234 20.0263 2.44982 31.9093 2.44785Z" fill="#3E4136"/>
</g>
<defs>
<clipPath id="clip0_1125_278">
<rect width="32" height="80" fill="white"/>
</clipPath>
</defs>
</svg>
